<svg xmlns="http://www.w3.org/2000/svg" width="760" height="220" viewBox="0 0 760 220" role="img" aria-label="Connect a Repo button">
  <defs>
    <filter id="shadow" x="-20%" y="-20%" width="140%" height="140%">
      <feDropShadow dx="0" dy="2" stdDeviation="4" flood-opacity="0.25"/>
    </filter>
  </defs>
  <rect width="760" height="220" fill="#0b0b0b"/>
  <rect x="96" y="52" rx="44" ry="44" width="568" height="116" fill="#f4f4f4" stroke="#d1d1d1" stroke-width="3" filter="url(#shadow)"/>
  <circle cx="178" cy="110" r="26" fill="#111"/>
  <path d="M178 84c-14 0-26 11-26 26 0 12 8 22 19 25 1 0 2-1 2-2v-8c-8 2-10-3-10-3-1-3-3-4-3-4-2-2 0-2 0-2 3 0 4 3 4 3 2 4 6 3 8 2 0-2 1-3 2-4-6-1-12-3-12-12 0-3 1-5 3-7 0-1-1-3 0-7 0 0 2-1 7 3 2-1 4-1 6-1 2 0 4 0 6 1 5-4 7-3 7-3 1 4 0 6 0 7 2 2 3 4 3 7 0 9-6 11-12 12 1 1 2 3 2 5v8c0 1 1 2 2 2 11-3 19-13 19-25 0-15-12-26-26-26z" fill="#fff"/>
  <text x="245" y="123" fill="#1a1a1a" font-family="Inter, Segoe UI, Arial, sans-serif" font-size="48" font-weight="500">Connect a Repo</text>
</svg>
